<?xml version="1.0" standalone="no"?>
<!DOCTYPE svg PUBLIC "-//W3C//DTD SVG 20010904//EN"
 "http://www.w3.org/TR/2001/REC-SVG-20010904/DTD/svg10.dtd">
<svg version="1.0" xmlns="http://www.w3.org/2000/svg"
 width="192.000000pt" height="192.000000pt" viewBox="0 0 192.000000 192.000000"
 preserveAspectRatio="xMidYMid meet">
<metadata>
Created by potrace 1.11, written by Peter Selinger 2001-2013
</metadata>
<g transform="translate(0.000000,192.000000) scale(0.100000,-0.100000)"
fill="#000000" stroke="none">
<path d="M572 1358 c-6 -7 -136 -114 -291 -238 -154 -124 -280 -230 -280 -235
-1 -14 81 -95 95 -95 6 0 110 45 230 99 147 67 237 102 273 106 46 6 53 5 48
-8 -15 -39 -18 -110 -7 -163 25 -122 109 -223 218 -264 78 -30 204 -25 277 10
72 34 148 116 175 187 23 61 30 152 17 214 l-7 36 77 -12 c163 -26 223 -51
223 -93 -1 -54 -54 -145 -139 -234 -19 -21 -32 -41 -28 -45 9 -9 462 223 462
236 0 6 -106 123 -235 261 l-235 249 -431 1 c-333 0 -434 -3 -442 -12z"/>
</g>
</svg>
