<?xml version="1.0" standalone="no"?>
<!DOCTYPE svg PUBLIC "-//W3C//DTD SVG 20010904//EN"
 "http://www.w3.org/TR/2001/REC-SVG-20010904/DTD/svg10.dtd">
<svg version="1.0" xmlns="http://www.w3.org/2000/svg"
 width="2537.000000pt" height="2537.000000pt" viewBox="0 0 2537.000000 2537.000000"
 preserveAspectRatio="xMidYMid meet">
<metadata>
Created by potrace 1.14, written by Peter Selinger 2001-2017
</metadata>
<g transform="translate(0.000000,2537.000000) scale(0.100000,-0.100000)"
fill="#000000" stroke="none">
<path d="M7818 18091 c-2 -3 -48 -42 -103 -86 -55 -44 -109 -87 -120 -97 -11
-9 -120 -97 -242 -196 -122 -98 -239 -192 -260 -209 -21 -17 -112 -91 -203
-164 -91 -73 -246 -198 -345 -279 -99 -80 -218 -177 -265 -214 -47 -38 -103
-84 -125 -101 -22 -18 -83 -67 -135 -109 -52 -41 -102 -82 -110 -89 -8 -7 -98
-80 -200 -162 -275 -221 -441 -355 -476 -384 -41 -34 -47 -39 -194 -156 -69
-55 -127 -102 -130 -105 -3 -3 -52 -44 -110 -90 -58 -46 -107 -87 -110 -90 -3
-3 -108 -88 -234 -189 -126 -101 -239 -192 -250 -202 -12 -9 -82 -66 -156
-126 -74 -60 -193 -156 -265 -214 -71 -58 -200 -161 -285 -229 -85 -68 -157
-127 -160 -130 -3 -3 -39 -32 -80 -65 -41 -33 -77 -62 -80 -65 -3 -3 -61 -50
-130 -105 -69 -55 -127 -102 -130 -105 -3 -3 -50 -41 -105 -85 -55 -44 -109
-88 -120 -97 -29 -24 -563 -454 -610 -491 -21 -18 -66 -55 -100 -82 -33 -28
-80 -66 -105 -85 -25 -19 -47 -37 -50 -40 -3 -3 -27 -24 -55 -45 -27 -22 -59
-48 -70 -57 -11 -9 -155 -125 -320 -258 -165 -133 -309 -249 -320 -258 -11
-10 -42 -35 -70 -57 -27 -22 -55 -44 -61 -50 -6 -5 -49 -40 -95 -77 -46 -38
-151 -122 -234 -189 -82 -67 -235 -190 -340 -275 -104 -84 -205 -165 -223
-181 l-33 -28 585 -585 c322 -322 589 -586 594 -588 8 -2 244 102 440 194 40
19 75 34 77 34 3 0 49 21 102 46 54 25 208 95 343 156 135 60 249 114 255 119
5 5 14 9 21 9 7 0 54 20 105 44 52 24 171 79 264 121 94 42 193 87 220 100 28
12 291 132 585 265 294 133 568 258 608 276 41 19 75 34 77 34 1 0 45 20 96
44 52 24 236 108 409 186 173 78 348 158 388 176 41 19 75 34 77 34 2 0 45 20
96 44 52 24 139 64 194 89 137 61 211 95 270 122 28 13 73 33 100 45 28 13 79
36 115 52 36 17 135 62 220 100 85 38 178 80 205 93 28 13 77 36 110 50 54 24
166 75 342 156 60 28 78 33 153 45 19 3 80 14 135 24 55 10 118 21 140 25 22
3 92 14 155 25 109 18 137 22 228 36 20 3 62 9 92 14 30 6 78 12 105 15 28 4
61 8 75 10 14 3 45 7 70 10 25 3 54 8 65 10 11 2 47 7 80 10 33 3 67 8 75 10
8 2 42 7 75 11 33 3 68 8 77 9 9 2 48 7 85 10 37 4 77 9 88 11 11 2 49 7 85
10 36 3 69 8 74 11 11 7 10 3 -53 -177 -43 -124 -123 -411 -137 -490 -3 -14
-13 -70 -24 -125 -20 -106 -38 -222 -45 -293 -3 -23 -7 -55 -9 -70 -29 -172
-29 -732 0 -972 9 -75 24 -193 29 -220 2 -14 6 -42 9 -63 15 -101 86 -409 111
-488 9 -25 17 -54 19 -65 13 -62 129 -376 182 -492 13 -29 24 -55 24 -58 0
-30 318 -608 349 -634 3 -3 11 -13 16 -22 20 -34 125 -184 147 -210 13 -14 32
-39 43 -54 21 -29 66 -86 75 -94 3 -3 25 -30 50 -60 75 -92 119 -139 272 -292
505 -502 1096 -865 1780 -1092 148 -49 430 -125 518 -140 19 -3 46 -8 60 -11
14 -3 43 -7 65 -10 22 -3 47 -7 55 -10 8 -2 40 -7 70 -10 30 -4 57 -8 60 -10
3 -2 43 -6 90 -10 47 -4 92 -9 101 -10 38 -7 294 -18 414 -18 252 1 524 23
725 59 14 2 43 7 64 9 198 27 602 140 861 242 1269 498 2244 1524 2670 2808
46 137 102 334 119 416 3 13 8 37 11 54 3 16 12 58 20 95 17 84 35 199 49 315
4 33 9 74 11 90 26 198 26 779 0 950 -2 17 -7 53 -10 80 -5 45 -11 85 -31 209
-5 33 -28 153 -50 256 -20 97 -77 293 -132 450 -68 197 -73 216 -57 213 6 0
44 -4 85 -8 41 -3 95 -9 120 -12 85 -9 186 -21 260 -29 30 -3 66 -7 80 -9 14
-2 52 -7 85 -10 33 -4 71 -8 85 -10 14 -2 48 -7 75 -10 28 -3 61 -8 75 -10 14
-2 50 -7 80 -10 30 -3 62 -8 70 -10 8 -2 40 -7 70 -10 30 -3 66 -8 80 -10 34
-6 76 -13 130 -20 25 -3 83 -12 130 -20 47 -8 99 -16 115 -18 17 -3 46 -8 65
-11 19 -3 46 -8 60 -10 14 -2 41 -7 60 -10 19 -3 47 -8 62 -10 15 -3 63 -11
105 -20 43 -8 92 -17 108 -20 81 -13 412 -83 600 -127 50 -11 101 -23 114 -25
14 -3 28 -7 33 -10 4 -3 16 -7 26 -9 9 -1 37 -8 62 -15 25 -7 52 -14 60 -16 8
-1 62 -17 120 -34 289 -84 563 -186 740 -274 414 -208 542 -380 543 -731 0
-77 -10 -214 -17 -236 -3 -8 -8 -32 -11 -53 -7 -49 -49 -209 -76 -290 -90
-266 -266 -624 -463 -941 -38 -61 -292 -440 -342 -510 -56 -79 -138 -190 -144
-195 -3 -3 -25 -32 -50 -65 -24 -33 -50 -66 -56 -75 -7 -8 -49 -62 -94 -120
-46 -58 -89 -110 -96 -116 -8 -6 -14 -16 -14 -22 0 -6 -3 -12 -7 -14 -5 -1
-53 -57 -108 -123 -55 -66 -163 -192 -239 -280 -183 -209 -194 -221 -240 -269
-21 -23 -75 -81 -120 -130 -44 -49 -109 -116 -143 -150 -35 -33 -63 -63 -63
-67 0 -8 126 56 1055 531 302 155 584 299 870 445 344 176 852 435 1355 692
252 130 578 296 920 470 230 118 371 190 885 453 116 59 329 168 475 243 394
201 504 257 506 260 3 3 -19 27 -276 297 -74 78 -155 163 -179 189 -167 177
-315 333 -364 385 -91 95 -300 316 -347 366 -24 25 -109 115 -190 200 -81 85
-164 173 -185 195 -20 22 -105 112 -188 200 -136 142 -202 212 -333 351 -22
23 -103 108 -181 190 -78 82 -163 172 -190 200 -124 132 -342 363 -540 570
-72 77 -155 164 -183 194 -28 30 -114 120 -189 200 -76 80 -157 165 -180 190
-24 25 -101 106 -171 180 -71 74 -152 160 -180 190 -28 30 -114 120 -189 200
-76 80 -157 165 -181 190 -23 25 -106 112 -184 194 -77 82 -157 166 -176 186
-19 20 -98 104 -176 186 -78 82 -160 169 -183 194 -51 54 -255 269 -342 360
-99 105 -333 351 -375 396 -70 75 -327 346 -414 437 -47 49 -110 115 -140 147
l-55 59 -5627 -1 c-3095 0 -5628 -3 -5630 -7z"/>
</g>
</svg>
