<?xml version="1.0" encoding="UTF-8" standalone="no"?>
<!-- Created with Inkscape (http://www.inkscape.org/) -->

<svg
   xmlns:dc="http://purl.org/dc/elements/1.1/"
   xmlns:cc="http://creativecommons.org/ns#"
   xmlns:rdf="http://www.w3.org/1999/02/22-rdf-syntax-ns#"
   xmlns:svg="http://www.w3.org/2000/svg"
   xmlns="http://www.w3.org/2000/svg"
   xmlns:xlink="http://www.w3.org/1999/xlink"
   xmlns:inkscape="http://www.inkscape.org/namespaces/inkscape"
   version="1.1"
   width="599.99268"
   height="603.39056"
   id="svg3156">
  <defs
     id="defs3158">
    <linearGradient
       x1="305.88278"
       y1="-1213.201"
       x2="305.88278"
       y2="-1023.8497"
       id="linearGradient7338"
       xlink:href="#linearGradient7292"
       gradientUnits="userSpaceOnUse" />
    <linearGradient
       id="linearGradient7292">
      <stop
         id="stop7294"
         style="stop-color:#00090a;stop-opacity:1"
         offset="0" />
      <stop
         id="stop7296"
         style="stop-color:#00090a;stop-opacity:0"
         offset="1" />
    </linearGradient>
    <filter
       color-interpolation-filters="sRGB"
       id="filter7328">
      <feGaussianBlur
         stdDeviation="3.2986529"
         id="feGaussianBlur7330" />
    </filter>
  </defs>
  <metadata
     id="metadata3161">
    <rdf:RDF>
      <cc:Work
         rdf:about="">
        <dc:format>image/svg+xml</dc:format>
        <dc:type
           rdf:resource="http://purl.org/dc/dcmitype/StillImage" />
        <dc:title />
      </cc:Work>
    </rdf:RDF>
  </metadata>
  <g
     transform="translate(-221.15469,88.408151)"
     id="layer1">
    <path
       d="m 415.77879,-1011.0054 a 109.60155,110.30865 0 1 1 -219.20309,0 109.60155,110.30865 0 1 1 219.20309,0 z"
       inkscape:connector-curvature="0"
       transform="matrix(2.0773788,0,0,2.0773788,-116.00847,2306.4223)"
       id="path3027"
       style="fill:#f5f1ed;fill-opacity:1;stroke:none" />
    <path
       d="m 415.77879,-1011.0054 a 109.60155,110.30865 0 1 1 -219.20309,0 109.60155,110.30865 0 1 1 219.20309,0 z"
       inkscape:connector-curvature="0"
       transform="matrix(2.3637251,0,0,2.3637251,-202.59204,2603.0132)"
       id="path7336"
       style="fill:none;stroke:url(#linearGradient7338);stroke-width:18.79999924;stroke-linecap:round;stroke-linejoin:miter;stroke-miterlimit:4;stroke-opacity:1;stroke-dasharray:none;stroke-dashoffset:0;filter:url(#filter7328)" />
    <path
       d="m 415.77879,-1011.0054 a 109.60155,110.30865 0 1 1 -219.20309,0 109.60155,110.30865 0 1 1 219.20309,0 z"
       inkscape:connector-curvature="0"
       transform="matrix(2.0773788,0,0,2.0773788,-116.00847,2306.4223)"
       id="path7244"
       style="fill:none;stroke:#00090a;stroke-width:18.79999924;stroke-linecap:round;stroke-linejoin:miter;stroke-miterlimit:4;stroke-opacity:1;stroke-dasharray:none;stroke-dashoffset:0" />
  </g>
</svg>
